# xmcd
#
# Track frame offsets:
#  150
#  15867
#  31413
#  49298
#  69778
#  81553
#  113468
#  122930
#  139791
#  158554
#  177986
#  214819
#
# Disc length: 3069 seconds
#
# Revision: 0
# Processed by: cddbd v1.5.1PL2 Copyright (c) Steve Scherf et al.
# Submitted via: Collectorz.com_Music_Collector 6.11
#
DISCID=9a0bfb0c
DTITLE=Backyard Blues Band - Just A Little White
DYEAR=2006
DGENRE=Blues
TTITLE0=Diggin' my potatoes
TTITLE1=My babe
TTITLE2=Got love if you want it
TTITLE3=I ain't lyin'
TTITLE4=Ball and chain
TTITLE5=Lord, don't treat me this way
TTITLE6=I want to be loved
TTITLE7=Born in Chicago
TTITLE8=I feel bad
TTITLE9=Sugar coated love
TTITLE10=Deep down in Florida
TTITLE11=Boom shakalaka boom
EXTD=
EXTT0=
EXTT1=
EXTT2=
EXTT3=
EXTT4=
EXTT5=
EXTT6=
EXTT7=
EXTT8=
EXTT9=
EXTT10=
EXTT11=
PLAYORDER=
